<?xml version="1.0" standalone="no"?>
<svg xmlns="http://www.w3.org/2000/svg" width="500" height="500"><defs><clipPath id="clip-path-dot-color"><path d="M 19 131v 14h 7a 7 7, 0, 0, 0, 0 -14" transform="rotate(-90,26,138)"/><path d="M 19 145v 14h 14v -7a 7 7, 0, 0, 0, -7 -7" transform="rotate(180,26,152)"/><path d="M 19 173v 14h 7a 7 7, 0, 0, 0, 0 -14" transform="rotate(180,26,180)"/><path d="M 19 201v 14h 7a 7 7, 0, 0, 0, 0 -14" transform="rotate(180,26,208)"/><path d="M 19 271v 14h 7a 7 7, 0, 0, 0, 0 -14" transform="rotate(-90,26,278)"/><path d="M 19 285v 14h 7a 7 7, 0, 0, 0, 0 -14" transform="rotate(90,26,292)"/><path d="M 19 327v 14h 14v -7a 7 7, 0, 0, 0, -7 -7" transform="rotate(-90,26,334)"/><path d="M 19 341v 14h 14v -7a 7 7, 0, 0, 0, -7 -7" transform="rotate(180,26,348)"/><path d="M 33 145v 14h 14v -7a 7 7, 0, 0, 0, -7 -7" transform="rotate(0,40,152)"/><rect x="33" y="159" width="14" height="14" transform="rotate(0,40,166)"/><rect x="33" y="173" width="14" height="14" transform="rotate(0,40,180)"/><rect x="33" y="187" width="14" height="14" transform="rotate(0,40,194)"/><rect x="33" y="201" width="14" height="14" transform="rotate(0,40,208)"/><path d="M 33 257v 14h 7a 7 7, 0, 0, 0, 0 -14" transform="rotate(180,40,264)"/><circle cx="40" cy="306" r="7" transform="rotate(0,40,306)"/><rect x="33" y="327" width="14" height="14" transform="rotate(0,40,334)"/><rect x="33" y="341" width="14" height="14" transform="rotate(0,40,348)"/><path d="M 33 355v 14h 14v -7a 7 7, 0, 0, 0, -7 -7" transform="rotate(180,40,362)"/><path d="M 47 131v 14h 7a 7 7, 0, 0, 0, 0 -14" transform="rotate(180,54,138)"/><path d="M 47 159v 14h 7a 7 7, 0, 0, 0, 0 -14" transform="rotate(0,54,166)"/><rect x="47" y="187" width="14" height="14" transform="rotate(0,54,194)"/><rect x="47" y="201" width="14" height="14" transform="rotate(0,54,208)"/><path d="M 47 229v 14h 7a 7 7, 0, 0, 0, 0 -14" transform="rotate(-90,54,236)"/><rect x="47" y="243" width="14" height="14" transform="rotate(0,54,250)"/><rect x="47" y="257" width="14" height="14" transform="rotate(0,54,264)"/><path d="M 47 285v 14h 7a 7 7, 0, 0, 0, 0 -14" transform="rotate(180,54,292)"/><rect x="47" y="327" width="14" height="14" transform="rotate(0,54,334)"/><rect x="47" y="341" width="14" height="14" transform="rotate(0,54,348)"/><rect x="47" y="355" width="14" height="14" transform="rotate(0,54,362)"/><path d="M 61 131v 14h 7a 7 7, 0, 0, 0, 0 -14" transform="rotate(0,68,138)"/><path d="M 61 173v 14h 14v -7a 7 7, 0, 0, 0, -7 -7" transform="rotate(-90,68,180)"/><rect x="61" y="187" width="14" height="14" transform="rotate(0,68,194)"/><rect x="61" y="201" width="14" height="14" transform="rotate(0,68,208)"/><rect x="61" y="257" width="14" height="14" transform="rotate(0,68,264)"/><rect x="61" y="285" width="14" height="14" transform="rotate(0,68,292)"/><path d="M 61 327v 14h 7a 7 7, 0, 0, 0, 0 -14" transform="rotate(0,68,334)"/><path d="M 61 355v 14h 7a 7 7, 0, 0, 0, 0 -14" transform="rotate(0,68,362)"/><circle cx="82" cy="152" r="7" transform="rotate(0,82,152)"/><path d="M 75 173v 14h 14v -7a 7 7, 0, 0, 0, -7 -7" transform="rotate(0,82,180)"/><rect x="75" y="187" width="14" height="14" transform="rotate(0,82,194)"/><rect x="75" y="201" width="14" height="14" transform="rotate(0,82,208)"/><path d="M 75 215v 14h 7a 7 7, 0, 0, 0, 0 -14" transform="rotate(90,82,222)"/><path d="M 75 243v 14h 7a 7 7, 0, 0, 0, 0 -14" transform="rotate(-90,82,250)"/><rect x="75" y="257" width="14" height="14" transform="rotate(0,82,264)"/><path d="M 75 285v 14h 7a 7 7, 0, 0, 0, 0 -14" transform="rotate(0,82,292)"/><circle cx="82" cy="320" r="7" transform="rotate(0,82,320)"/><circle cx="82" cy="348" r="7" transform="rotate(0,82,348)"/><path d="M 89 131v 14h 7a 7 7, 0, 0, 0, 0 -14" transform="rotate(180,96,138)"/><path d="M 89 159v 14h 7a 7 7, 0, 0, 0, 0 -14" transform="rotate(180,96,166)"/><path d="M 89 201v 14h 7a 7 7, 0, 0, 0, 0 -14" transform="rotate(0,96,208)"/><path d="M 89 257v 14h 14v -7a 7 7, 0, 0, 0, -7 -7" transform="rotate(0,96,264)"/><path d="M 89 271v 14h 14v -7a 7 7, 0, 0, 0, -7 -7" transform="rotate(180,96,278)"/><path d="M 89 299v 14h 7a 7 7, 0, 0, 0, 0 -14" transform="rotate(180,96,306)"/><path d="M 89 327v 14h 7a 7 7, 0, 0, 0, 0 -14" transform="rotate(180,96,334)"/><path d="M 89 355v 14h 7a 7 7, 0, 0, 0, 0 -14" transform="rotate(180,96,362)"/><rect x="103" y="131" width="14" height="14" transform="rotate(0,110,138)"/><rect x="103" y="159" width="14" height="14" transform="rotate(0,110,166)"/><path d="M 103 187v 14h 7a 7 7, 0, 0, 0, 0 -14" transform="rotate(180,110,194)"/><path d="M 103 215v 14h 7a 7 7, 0, 0, 0, 0 -14" transform="rotate(180,110,222)"/><path d="M 103 243v 14h 7a 7 7, 0, 0, 0, 0 -14" transform="rotate(180,110,250)"/><rect x="103" y="271" width="14" height="14" transform="rotate(0,110,278)"/><rect x="103" y="299" width="14" height="14" transform="rotate(0,110,306)"/><path d="M 103 327v 14h 7a 7 7, 0, 0, 0, 0 -14" transform="rotate(0,110,334)"/><rect x="103" y="355" width="14" height="14" transform="rotate(0,110,362)"/><rect x="117" y="131" width="14" height="14" transform="rotate(0,124,138)"/><path d="M 117 159v 14h 7a 7 7, 0, 0, 0, 0 -14" transform="rotate(0,124,166)"/><rect x="117" y="187" width="14" height="14" transform="rotate(0,124,194)"/><path d="M 117 215v 14h 7a 7 7, 0, 0, 0, 0 -14" transform="rotate(0,124,222)"/><path d="M 117 243v 14h 14v -7a 7 7, 0, 0, 0, -7 -7" transform="rotate(0,124,250)"/><rect x="117" y="257" width="14" height="14" transform="rotate(0,124,264)"/><rect x="117" y="271" width="14" height="14" transform="rotate(0,124,278)"/><rect x="117" y="285" width="14" height="14" transform="rotate(0,124,292)"/><rect x="117" y="299" width="14" height="14" transform="rotate(0,124,306)"/><path d="M 117 313v 14h 14v -7a 7 7, 0, 0, 0, -7 -7" transform="rotate(180,124,320)"/><path d="M 117 341v 14h 14v -7a 7 7, 0, 0, 0, -7 -7" transform="rotate(-90,124,348)"/><path d="M 117 355v 14h 14v -7a 7 7, 0, 0, 0, -7 -7" transform="rotate(90,124,362)"/><circle cx="138" cy="40" r="7" transform="rotate(0,138,40)"/><circle cx="138" cy="68" r="7" transform="rotate(0,138,68)"/><path d="M 131 89v 14h 14v -7a 7 7, 0, 0, 0, -7 -7" transform="rotate(-90,138,96)"/><rect x="131" y="103" width="14" height="14" transform="rotate(0,138,110)"/><rect x="131" y="117" width="14" height="14" transform="rotate(0,138,124)"/><rect x="131" y="131" width="14" height="14" transform="rotate(0,138,138)"/><path d="M 131 145v 14h 14v -7a 7 7, 0, 0, 0, -7 -7" transform="rotate(180,138,152)"/><path d="M 131 173v 14h 7a 7 7, 0, 0, 0, 0 -14" transform="rotate(-90,138,180)"/><rect x="131" y="187" width="14" height="14" transform="rotate(0,138,194)"/><path d="M 131 229v 14h 7a 7 7, 0, 0, 0, 0 -14" transform="rotate(180,138,236)"/><path d="M 131 285v 14h 7a 7 7, 0, 0, 0, 0 -14" transform="rotate(0,138,292)"/><rect x="131" y="313" width="14" height="14" transform="rotate(0,138,320)"/><path d="M 131 341v 14h 7a 7 7, 0, 0, 0, 0 -14" transform="rotate(0,138,348)"/><path d="M 131 369v 14h 14v -7a 7 7, 0, 0, 0, -7 -7" transform="rotate(-90,138,376)"/><rect x="131" y="383" width="14" height="14" transform="rotate(0,138,390)"/><path d="M 131 397v 14h 14v -7a 7 7, 0, 0, 0, -7 -7" transform="rotate(180,138,404)"/><path d="M 131 425v 14h 7a 7 7, 0, 0, 0, 0 -14" transform="rotate(-90,138,432)"/><path d="M 131 439v 14h 7a 7 7, 0, 0, 0, 0 -14" transform="rotate(90,138,446)"/><path d="M 131 467v 14h 7a 7 7, 0, 0, 0, 0 -14" transform="rotate(180,138,474)"/><path d="M 145 19v 14h 7a 7 7, 0, 0, 0, 0 -14" transform="rotate(180,152,26)"/><path d="M 145 75v 14h 7a 7 7, 0, 0, 0, 0 -14" transform="rotate(-90,152,82)"/><path d="M 145 89v 14h 14v -7a 7 7, 0, 0, 0, -7 -7" transform="rotate(90,152,96)"/><rect x="145" y="117" width="14" height="14" transform="rotate(0,152,124)"/><rect x="145" y="131" width="14" height="14" transform="rotate(0,152,138)"/><rect x="145" y="145" width="14" height="14" transform="rotate(0,152,152)"/><rect x="145" y="187" width="14" height="14" transform="rotate(0,152,194)"/><rect x="145" y="201" width="14" height="14" transform="rotate(0,152,208)"/><rect x="145" y="215" width="14" height="14" transform="rotate(0,152,222)"/><rect x="145" y="229" width="14" height="14" transform="rotate(0,152,236)"/><path d="M 145 299v 14h 14v -7a 7 7, 0, 0, 0, -7 -7" transform="rotate(-90,152,306)"/><rect x="145" y="313" width="14" height="14" transform="rotate(0,152,320)"/><path d="M 145 327v 14h 7a 7 7, 0, 0, 0, 0 -14" transform="rotate(90,152,334)"/><path d="M 145 355v 14h 14v -7a 7 7, 0, 0, 0, -7 -7" transform="rotate(-90,152,362)"/><rect x="145" y="369" width="14" height="14" transform="rotate(0,152,376)"/><rect x="145" y="383" width="14" height="14" transform="rotate(0,152,390)"/><rect x="145" y="397" width="14" height="14" transform="rotate(0,152,404)"/><path d="M 145 453v 14h 14v -7a 7 7, 0, 0, 0, -7 -7" transform="rotate(-90,152,460)"/><rect x="145" y="467" width="14" height="14" transform="rotate(0,152,474)"/><path d="M 159 19v 14h 14v -7a 7 7, 0, 0, 0, -7 -7" transform="rotate(0,166,26)"/><path d="M 159 33v 14h 14v -7a 7 7, 0, 0, 0, -7 -7" transform="rotate(180,166,40)"/><circle cx="166" cy="68" r="7" transform="rotate(0,166,68)"/><path d="M 159 103v 14h 7a 7 7, 0, 0, 0, 0 -14" transform="rotate(-90,166,110)"/><rect x="159" y="117" width="14" height="14" transform="rotate(0,166,124)"/><rect x="159" y="131" width="14" height="14" transform="rotate(0,166,138)"/><rect x="159" y="145" width="14" height="14" transform="rotate(0,166,152)"/><rect x="159" y="159" width="14" height="14" transform="rotate(0,166,166)"/><rect x="159" y="173" width="14" height="14" transform="rotate(0,166,180)"/><rect x="159" y="187" width="14" height="14" transform="rotate(0,166,194)"/><path d="M 159 201v 14h 14v -7a 7 7, 0, 0, 0, -7 -7" transform="rotate(90,166,208)"/><rect x="159" y="229" width="14" height="14" transform="rotate(0,166,236)"/><path d="M 159 257v 14h 7a 7 7, 0, 0, 0, 0 -14" transform="rotate(180,166,264)"/><path d="M 159 285v 14h 7a 7 7, 0, 0, 0, 0 -14" transform="rotate(-90,166,292)"/><path d="M 159 299v 14h 14v -7a 7 7, 0, 0, 0, -7 -7" transform="rotate(90,166,306)"/><rect x="159" y="355" width="14" height="14" transform="rotate(0,166,362)"/><path d="M 159 397v 14h 14v -7a 7 7, 0, 0, 0, -7 -7" transform="rotate(0,166,404)"/><path d="M 159 411v 14h 14v -7a 7 7, 0, 0, 0, -7 -7" transform="rotate(180,166,418)"/><path d="M 159 439v 14h 7a 7 7, 0, 0, 0, 0 -14" transform="rotate(-90,166,446)"/><rect x="159" y="453" width="14" height="14" transform="rotate(0,166,460)"/><path d="M 159 467v 14h 14v -7a 7 7, 0, 0, 0, -7 -7" transform="rotate(90,166,474)"/><path d="M 173 33v 14h 7a 7 7, 0, 0, 0, 0 -14" transform="rotate(0,180,40)"/><path d="M 173 75v 14h 7a 7 7, 0, 0, 0, 0 -14" transform="rotate(180,180,82)"/><path d="M 173 215v 14h 14v -7a 7 7, 0, 0, 0, -7 -7" transform="rotate(-90,180,222)"/><path d="M 173 229v 14h 14v -7a 7 7, 0, 0, 0, -7 -7" transform="rotate(90,180,236)"/><path d="M 173 257v 14h 7a 7 7, 0, 0, 0, 0 -14" transform="rotate(0,180,264)"/><path d="M 173 313v 14h 14v -7a 7 7, 0, 0, 0, -7 -7" transform="rotate(-90,180,320)"/><rect x="173" y="327" width="14" height="14" transform="rotate(0,180,334)"/><rect x="173" y="341" width="14" height="14" transform="rotate(0,180,348)"/><rect x="173" y="355" width="14" height="14" transform="rotate(0,180,362)"/><path d="M 173 369v 14h 14v -7a 7 7, 0, 0, 0, -7 -7" transform="rotate(180,180,376)"/><path d="M 173 411v 14h 14v -7a 7 7, 0, 0, 0, -7 -7" transform="rotate(0,180,418)"/><path d="M 173 425v 14h 14v -7a 7 7, 0, 0, 0, -7 -7" transform="rotate(180,180,432)"/><circle cx="194" cy="26" r="7" transform="rotate(0,194,26)"/><path d="M 187 61v 14h 7a 7 7, 0, 0, 0, 0 -14" transform="rotate(-90,194,68)"/><rect x="187" y="75" width="14" height="14" transform="rotate(0,194,82)"/><path d="M 187 103v 14h 7a 7 7, 0, 0, 0, 0 -14" transform="rotate(-90,194,110)"/><path d="M 187 117v 14h 7a 7 7, 0, 0, 0, 0 -14" transform="rotate(90,194,124)"/><path d="M 187 145v 14h 7a 7 7, 0, 0, 0, 0 -14" transform="rotate(-90,194,152)"/><rect x="187" y="159" width="14" height="14" transform="rotate(0,194,166)"/><rect x="187" y="173" width="14" height="14" transform="rotate(0,194,180)"/><path d="M 187 187v 14h 7a 7 7, 0, 0, 0, 0 -14" transform="rotate(90,194,194)"/><path d="M 187 215v 14h 7a 7 7, 0, 0, 0, 0 -14" transform="rotate(0,194,222)"/><circle cx="194" cy="292" r="7" transform="rotate(0,194,292)"/><rect x="187" y="313" width="14" height="14" transform="rotate(0,194,320)"/><path d="M 187 341v 14h 14v -7a 7 7, 0, 0, 0, -7 -7" transform="rotate(0,194,348)"/><rect x="187" y="355" width="14" height="14" transform="rotate(0,194,362)"/><rect x="187" y="369" width="14" height="14" transform="rotate(0,194,376)"/><path d="M 187 383v 14h 14v -7a 7 7, 0, 0, 0, -7 -7" transform="rotate(180,194,390)"/><path d="M 187 425v 14h 7a 7 7, 0, 0, 0, 0 -14" transform="rotate(0,194,432)"/><path d="M 187 467v 14h 7a 7 7, 0, 0, 0, 0 -14" transform="rotate(180,194,474)"/><circle cx="208" cy="40" r="7" transform="rotate(0,208,40)"/><rect x="201" y="75" width="14" height="14" transform="rotate(0,208,82)"/><circle cx="208" cy="138" r="7" transform="rotate(0,208,138)"/><circle cx="208" cy="236" r="7" transform="rotate(0,208,236)"/><path d="M 201 313v 14h 14v -7a 7 7, 0, 0, 0, -7 -7" transform="rotate(0,208,320)"/><path d="M 201 327v 14h 7a 7 7, 0, 0, 0, 0 -14" transform="rotate(90,208,334)"/><rect x="201" y="355" width="14" height="14" transform="rotate(0,208,362)"/><rect x="201" y="383" width="14" height="14" transform="rotate(0,208,390)"/><path d="M 201 411v 14h 7a 7 7, 0, 0, 0, 0 -14" transform="rotate(180,208,418)"/><path d="M 201 439v 14h 7a 7 7, 0, 0, 0, 0 -14" transform="rotate(-90,208,446)"/><rect x="201" y="453" width="14" height="14" transform="rotate(0,208,460)"/><path d="M 201 467v 14h 14v -7a 7 7, 0, 0, 0, -7 -7" transform="rotate(90,208,474)"/><rect x="215" y="75" width="14" height="14" transform="rotate(0,222,82)"/><path d="M 215 103v 14h 7a 7 7, 0, 0, 0, 0 -14" transform="rotate(-90,222,110)"/><path d="M 215 117v 14h 14v -7a 7 7, 0, 0, 0, -7 -7" transform="rotate(180,222,124)"/><circle cx="222" cy="166" r="7" transform="rotate(0,222,166)"/><path d="M 215 187v 14h 14v -7a 7 7, 0, 0, 0, -7 -7" transform="rotate(-90,222,194)"/><rect x="215" y="201" width="14" height="14" transform="rotate(0,222,208)"/><path d="M 215 215v 14h 14v -7a 7 7, 0, 0, 0, -7 -7" transform="rotate(180,222,222)"/><path d="M 215 271v 14h 7a 7 7, 0, 0, 0, 0 -14" transform="rotate(180,222,278)"/><circle cx="222" cy="306" r="7" transform="rotate(0,222,306)"/><path d="M 215 341v 14h 14v -7a 7 7, 0, 0, 0, -7 -7" transform="rotate(-90,222,348)"/><rect x="215" y="355" width="14" height="14" transform="rotate(0,222,362)"/><rect x="215" y="369" width="14" height="14" transform="rotate(0,222,376)"/><rect x="215" y="383" width="14" height="14" transform="rotate(0,222,390)"/><rect x="215" y="397" width="14" height="14" transform="rotate(0,222,404)"/><rect x="215" y="411" width="14" height="14" transform="rotate(0,222,418)"/><rect x="215" y="453" width="14" height="14" transform="rotate(0,222,460)"/><path d="M 229 19v 14h 7a 7 7, 0, 0, 0, 0 -14" transform="rotate(180,236,26)"/><circle cx="236" cy="54" r="7" transform="rotate(0,236,54)"/><rect x="229" y="75" width="14" height="14" transform="rotate(0,236,82)"/><path d="M 229 117v 14h 14v -7a 7 7, 0, 0, 0, -7 -7" transform="rotate(0,236,124)"/><path d="M 229 131v 14h 7a 7 7, 0, 0, 0, 0 -14" transform="rotate(90,236,138)"/><path d="M 229 173v 14h 14v -7a 7 7, 0, 0, 0, -7 -7" transform="rotate(-90,236,180)"/><rect x="229" y="187" width="14" height="14" transform="rotate(0,236,194)"/><path d="M 229 215v 14h 7a 7 7, 0, 0, 0, 0 -14" transform="rotate(0,236,222)"/><circle cx="236" cy="250" r="7" transform="rotate(0,236,250)"/><rect x="229" y="271" width="14" height="14" transform="rotate(0,236,278)"/><path d="M 229 285v 14h 14v -7a 7 7, 0, 0, 0, -7 -7" transform="rotate(180,236,292)"/><path d="M 229 313v 14h 14v -7a 7 7, 0, 0, 0, -7 -7" transform="rotate(-90,236,320)"/><rect x="229" y="327" width="14" height="14" transform="rotate(0,236,334)"/><rect x="229" y="341" width="14" height="14" transform="rotate(0,236,348)"/><rect x="229" y="383" width="14" height="14" transform="rotate(0,236,390)"/><rect x="229" y="397" width="14" height="14" transform="rotate(0,236,404)"/><rect x="229" y="411" width="14" height="14" transform="rotate(0,236,418)"/><rect x="229" y="453" width="14" height="14" transform="rotate(0,236,460)"/><rect x="243" y="19" width="14" height="14" transform="rotate(0,250,26)"/><path d="M 243 75v 14h 7a 7 7, 0, 0, 0, 0 -14" transform="rotate(0,250,82)"/><circle cx="250" cy="110" r="7" transform="rotate(0,250,110)"/><path d="M 243 159v 14h 14v -7a 7 7, 0, 0, 0, -7 -7" transform="rotate(-90,250,166)"/><rect x="243" y="173" width="14" height="14" transform="rotate(0,250,180)"/><rect x="243" y="187" width="14" height="14" transform="rotate(0,250,194)"/><path d="M 243 257v 14h 14v -7a 7 7, 0, 0, 0, -7 -7" transform="rotate(-90,250,264)"/><rect x="243" y="271" width="14" height="14" transform="rotate(0,250,278)"/><rect x="243" y="285" width="14" height="14" transform="rotate(0,250,292)"/><rect x="243" y="299" width="14" height="14" transform="rotate(0,250,306)"/><rect x="243" y="313" width="14" height="14" transform="rotate(0,250,320)"/><rect x="243" y="327" width="14" height="14" transform="rotate(0,250,334)"/><rect x="243" y="341" width="14" height="14" transform="rotate(0,250,348)"/><path d="M 243 355v 14h 7a 7 7, 0, 0, 0, 0 -14" transform="rotate(90,250,362)"/><path d="M 243 383v 14h 7a 7 7, 0, 0, 0, 0 -14" transform="rotate(0,250,390)"/><path d="M 243 411v 14h 14v -7a 7 7, 0, 0, 0, -7 -7" transform="rotate(0,250,418)"/><path d="M 243 425v 14h 14v -7a 7 7, 0, 0, 0, -7 -7" transform="rotate(180,250,432)"/><rect x="243" y="453" width="14" height="14" transform="rotate(0,250,460)"/><path d="M 257 19v 14h 14v -7a 7 7, 0, 0, 0, -7 -7" transform="rotate(0,264,26)"/><path d="M 257 33v 14h 7a 7 7, 0, 0, 0, 0 -14" transform="rotate(90,264,40)"/><path d="M 257 145v 14h 7a 7 7, 0, 0, 0, 0 -14" transform="rotate(-90,264,152)"/><rect x="257" y="159" width="14" height="14" transform="rotate(0,264,166)"/><path d="M 257 187v 14h 14v -7a 7 7, 0, 0, 0, -7 -7" transform="rotate(0,264,194)"/><rect x="257" y="201" width="14" height="14" transform="rotate(0,264,208)"/><rect x="257" y="215" width="14" height="14" transform="rotate(0,264,222)"/><path d="M 257 229v 14h 7a 7 7, 0, 0, 0, 0 -14" transform="rotate(90,264,236)"/><rect x="257" y="257" width="14" height="14" transform="rotate(0,264,264)"/><path d="M 257 299v 14h 7a 7 7, 0, 0, 0, 0 -14" transform="rotate(0,264,306)"/><rect x="257" y="327" width="14" height="14" transform="rotate(0,264,334)"/><path d="M 257 341v 14h 14v -7a 7 7, 0, 0, 0, -7 -7" transform="rotate(90,264,348)"/><circle cx="264" cy="404" r="7" transform="rotate(0,264,404)"/><path d="M 257 425v 14h 7a 7 7, 0, 0, 0, 0 -14" transform="rotate(0,264,432)"/><rect x="257" y="453" width="14" height="14" transform="rotate(0,264,460)"/><path d="M 271 61v 14h 14v -7a 7 7, 0, 0, 0, -7 -7" transform="rotate(-90,278,68)"/><path d="M 271 75v 14h 14v -7a 7 7, 0, 0, 0, -7 -7" transform="rotate(180,278,82)"/><circle cx="278" cy="110" r="7" transform="rotate(0,278,110)"/><path d="M 271 159v 14h 7a 7 7, 0, 0, 0, 0 -14" transform="rotate(0,278,166)"/><rect x="271" y="201" width="14" height="14" transform="rotate(0,278,208)"/><rect x="271" y="215" width="14" height="14" transform="rotate(0,278,222)"/><rect x="271" y="257" width="14" height="14" transform="rotate(0,278,264)"/><rect x="271" y="327" width="14" height="14" transform="rotate(0,278,334)"/><circle cx="278" cy="390" r="7" transform="rotate(0,278,390)"/><path d="M 271 439v 14h 7a 7 7, 0, 0, 0, 0 -14" transform="rotate(-90,278,446)"/><rect x="271" y="453" width="14" height="14" transform="rotate(0,278,460)"/><path d="M 271 467v 14h 14v -7a 7 7, 0, 0, 0, -7 -7" transform="rotate(180,278,474)"/><path d="M 285 19v 14h 14v -7a 7 7, 0, 0, 0, -7 -7" transform="rotate(-90,292,26)"/><path d="M 285 33v 14h 14v -7a 7 7, 0, 0, 0, -7 -7" transform="rotate(180,292,40)"/><rect x="285" y="61" width="14" height="14" transform="rotate(0,292,68)"/><rect x="285" y="75" width="14" height="14" transform="rotate(0,292,82)"/><path d="M 285 89v 14h 14v -7a 7 7, 0, 0, 0, -7 -7" transform="rotate(180,292,96)"/><circle cx="292" cy="138" r="7" transform="rotate(0,292,138)"/><circle cx="292" cy="180" r="7" transform="rotate(0,292,180)"/><path d="M 285 201v 14h 14v -7a 7 7, 0, 0, 0, -7 -7" transform="rotate(0,292,208)"/><path d="M 285 215v 14h 14v -7a 7 7, 0, 0, 0, -7 -7" transform="rotate(90,292,222)"/><path d="M 285 257v 14h 7a 7 7, 0, 0, 0, 0 -14" transform="rotate(0,292,264)"/><path d="M 285 299v 14h 7a 7 7, 0, 0, 0, 0 -14" transform="rotate(-90,292,306)"/><rect x="285" y="313" width="14" height="14" transform="rotate(0,292,320)"/><rect x="285" y="327" width="14" height="14" transform="rotate(0,292,334)"/><path d="M 285 355v 14h 14v -7a 7 7, 0, 0, 0, -7 -7" transform="rotate(-90,292,362)"/><path d="M 285 369v 14h 14v -7a 7 7, 0, 0, 0, -7 -7" transform="rotate(180,292,376)"/><circle cx="292" cy="404" r="7" transform="rotate(0,292,404)"/><rect x="285" y="453" width="14" height="14" transform="rotate(0,292,460)"/><rect x="285" y="467" width="14" height="14" transform="rotate(0,292,474)"/><path d="M 299 19v 14h 14v -7a 7 7, 0, 0, 0, -7 -7" transform="rotate(0,306,26)"/><path d="M 299 33v 14h 14v -7a 7 7, 0, 0, 0, -7 -7" transform="rotate(90,306,40)"/><path d="M 299 61v 14h 7a 7 7, 0, 0, 0, 0 -14" transform="rotate(0,306,68)"/><rect x="299" y="89" width="14" height="14" transform="rotate(0,306,96)"/><rect x="299" y="103" width="14" height="14" transform="rotate(0,306,110)"/><path d="M 299 117v 14h 7a 7 7, 0, 0, 0, 0 -14" transform="rotate(90,306,124)"/><circle cx="306" cy="194" r="7" transform="rotate(0,306,194)"/><path d="M 299 229v 14h 7a 7 7, 0, 0, 0, 0 -14" transform="rotate(-90,306,236)"/><path d="M 299 243v 14h 14v -7a 7 7, 0, 0, 0, -7 -7" transform="rotate(180,306,250)"/><circle cx="306" cy="278" r="7" transform="rotate(0,306,278)"/><path d="M 299 327v 14h 14v -7a 7 7, 0, 0, 0, -7 -7" transform="rotate(0,306,334)"/><rect x="299" y="341" width="14" height="14" transform="rotate(0,306,348)"/><rect x="299" y="355" width="14" height="14" transform="rotate(0,306,362)"/><rect x="299" y="369" width="14" height="14" transform="rotate(0,306,376)"/><rect x="299" y="453" width="14" height="14" transform="rotate(0,306,460)"/><rect x="299" y="467" width="14" height="14" transform="rotate(0,306,474)"/><path d="M 313 47v 14h 7a 7 7, 0, 0, 0, 0 -14" transform="rotate(180,320,54)"/><path d="M 313 89v 14h 7a 7 7, 0, 0, 0, 0 -14" transform="rotate(0,320,96)"/><path d="M 313 131v 14h 7a 7 7, 0, 0, 0, 0 -14" transform="rotate(-90,320,138)"/><rect x="313" y="145" width="14" height="14" transform="rotate(0,320,152)"/><path d="M 313 159v 14h 14v -7a 7 7, 0, 0, 0, -7 -7" transform="rotate(180,320,166)"/><circle cx="320" cy="222" r="7" transform="rotate(0,320,222)"/><path d="M 313 243v 14h 14v -7a 7 7, 0, 0, 0, -7 -7" transform="rotate(0,320,250)"/><path d="M 313 257v 14h 7a 7 7, 0, 0, 0, 0 -14" transform="rotate(90,320,264)"/><path d="M 313 285v 14h 7a 7 7, 0, 0, 0, 0 -14" transform="rotate(-90,320,292)"/><rect x="313" y="299" width="14" height="14" transform="rotate(0,320,306)"/><path d="M 313 313v 14h 7a 7 7, 0, 0, 0, 0 -14" transform="rotate(90,320,320)"/><path d="M 313 355v 14h 14v -7a 7 7, 0, 0, 0, -7 -7" transform="rotate(0,320,362)"/><rect x="313" y="369" width="14" height="14" transform="rotate(0,320,376)"/><path d="M 313 383v 14h 14v -7a 7 7, 0, 0, 0, -7 -7" transform="rotate(180,320,390)"/><path d="M 313 425v 14h 7a 7 7, 0, 0, 0, 0 -14" transform="rotate(180,320,432)"/><path d="M 313 453v 14h 14v -7a 7 7, 0, 0, 0, -7 -7" transform="rotate(0,320,460)"/><rect x="313" y="467" width="14" height="14" transform="rotate(0,320,474)"/><path d="M 327 19v 14h 7a 7 7, 0, 0, 0, 0 -14" transform="rotate(-90,334,26)"/><rect x="327" y="33" width="14" height="14" transform="rotate(0,334,40)"/><rect x="327" y="47" width="14" height="14" transform="rotate(0,334,54)"/><path d="M 327 75v 14h 7a 7 7, 0, 0, 0, 0 -14" transform="rotate(180,334,82)"/><circle cx="334" cy="110" r="7" transform="rotate(0,334,110)"/><path d="M 327 159v 14h 14v -7a 7 7, 0, 0, 0, -7 -7" transform="rotate(0,334,166)"/><path d="M 327 173v 14h 7a 7 7, 0, 0, 0, 0 -14" transform="rotate(90,334,180)"/><path d="M 327 299v 14h 7a 7 7, 0, 0, 0, 0 -14" transform="rotate(0,334,306)"/><circle cx="334" cy="334" r="7" transform="rotate(0,334,334)"/><path d="M 327 383v 14h 14v -7a 7 7, 0, 0, 0, -7 -7" transform="rotate(0,334,390)"/><path d="M 327 397v 14h 14v -7a 7 7, 0, 0, 0, -7 -7" transform="rotate(180,334,404)"/><rect x="327" y="425" width="14" height="14" transform="rotate(0,334,432)"/><path d="M 327 467v 14h 7a 7 7, 0, 0, 0, 0 -14" transform="rotate(0,334,474)"/><path d="M 341 33v 14h 14v -7a 7 7, 0, 0, 0, -7 -7" transform="rotate(0,348,40)"/><rect x="341" y="47" width="14" height="14" transform="rotate(0,348,54)"/><rect x="341" y="61" width="14" height="14" transform="rotate(0,348,68)"/><rect x="341" y="75" width="14" height="14" transform="rotate(0,348,82)"/><path d="M 341 89v 14h 14v -7a 7 7, 0, 0, 0, -7 -7" transform="rotate(180,348,96)"/><path d="M 341 201v 14h 14v -7a 7 7, 0, 0, 0, -7 -7" transform="rotate(-90,348,208)"/><rect x="341" y="215" width="14" height="14" transform="rotate(0,348,222)"/><rect x="341" y="229" width="14" height="14" transform="rotate(0,348,236)"/><path d="M 341 243v 14h 7a 7 7, 0, 0, 0, 0 -14" transform="rotate(90,348,250)"/><path d="M 341 313v 14h 7a 7 7, 0, 0, 0, 0 -14" transform="rotate(180,348,320)"/><circle cx="348" cy="348" r="7" transform="rotate(0,348,348)"/><rect x="341" y="397" width="14" height="14" transform="rotate(0,348,404)"/><rect x="341" y="411" width="14" height="14" transform="rotate(0,348,418)"/><path d="M 341 425v 14h 14v -7a 7 7, 0, 0, 0, -7 -7" transform="rotate(90,348,432)"/><circle cx="362" cy="26" r="7" transform="rotate(0,362,26)"/><path d="M 355 47v 14h 7a 7 7, 0, 0, 0, 0 -14" transform="rotate(0,362,54)"/><path d="M 355 89v 14h 14v -7a 7 7, 0, 0, 0, -7 -7" transform="rotate(0,362,96)"/><rect x="355" y="103" width="14" height="14" transform="rotate(0,362,110)"/><rect x="355" y="117" width="14" height="14" transform="rotate(0,362,124)"/><path d="M 355 131v 14h 14v -7a 7 7, 0, 0, 0, -7 -7" transform="rotate(180,362,138)"/><path d="M 355 159v 14h 14v -7a 7 7, 0, 0, 0, -7 -7" transform="rotate(-90,362,166)"/><path d="M 355 173v 14h 7a 7 7, 0, 0, 0, 0 -14" transform="rotate(90,362,180)"/><path d="M 355 201v 14h 14v -7a 7 7, 0, 0, 0, -7 -7" transform="rotate(0,362,208)"/><path d="M 355 215v 14h 14v -7a 7 7, 0, 0, 0, -7 -7" transform="rotate(90,362,222)"/><circle cx="362" cy="264" r="7" transform="rotate(0,362,264)"/><path d="M 355 285v 14h 14v -7a 7 7, 0, 0, 0, -7 -7" transform="rotate(-90,362,292)"/><rect x="355" y="299" width="14" height="14" transform="rotate(0,362,306)"/><path d="M 355 313v 14h 14v -7a 7 7, 0, 0, 0, -7 -7" transform="rotate(90,362,320)"/><path d="M 355 355v 14h 14v -7a 7 7, 0, 0, 0, -7 -7" transform="rotate(-90,362,362)"/><rect x="355" y="369" width="14" height="14" transform="rotate(0,362,376)"/><rect x="355" y="383" width="14" height="14" transform="rotate(0,362,390)"/><rect x="355" y="397" width="14" height="14" transform="rotate(0,362,404)"/><rect x="355" y="411" width="14" height="14" transform="rotate(0,362,418)"/><path d="M 355 453v 14h 7a 7 7, 0, 0, 0, 0 -14" transform="rotate(-90,362,460)"/><path d="M 355 467v 14h 14v -7a 7 7, 0, 0, 0, -7 -7" transform="rotate(180,362,474)"/><rect x="369" y="131" width="14" height="14" transform="rotate(0,376,138)"/><path d="M 369 159v 14h 7a 7 7, 0, 0, 0, 0 -14" transform="rotate(0,376,166)"/><path d="M 369 187v 14h 7a 7 7, 0, 0, 0, 0 -14" transform="rotate(180,376,194)"/><path d="M 369 229v 14h 7a 7 7, 0, 0, 0, 0 -14" transform="rotate(180,376,236)"/><path d="M 369 285v 14h 14v -7a 7 7, 0, 0, 0, -7 -7" transform="rotate(0,376,292)"/><path d="M 369 299v 14h 14v -7a 7 7, 0, 0, 0, -7 -7" transform="rotate(90,376,306)"/><rect x="369" y="355" width="14" height="14" transform="rotate(0,376,362)"/><rect x="369" y="411" width="14" height="14" transform="rotate(0,376,418)"/><path d="M 369 425v 14h 14v -7a 7 7, 0, 0, 0, -7 -7" transform="rotate(180,376,432)"/><path d="M 369 467v 14h 7a 7 7, 0, 0, 0, 0 -14" transform="rotate(0,376,474)"/><rect x="383" y="131" width="14" height="14" transform="rotate(0,390,138)"/><path d="M 383 173v 14h 7a 7 7, 0, 0, 0, 0 -14" transform="rotate(-90,390,180)"/><path d="M 383 187v 14h 14v -7a 7 7, 0, 0, 0, -7 -7" transform="rotate(90,390,194)"/><rect x="383" y="229" width="14" height="14" transform="rotate(0,390,236)"/><path d="M 383 243v 14h 7a 7 7, 0, 0, 0, 0 -14" transform="rotate(90,390,250)"/><circle cx="390" cy="320" r="7" transform="rotate(0,390,320)"/><rect x="383" y="355" width="14" height="14" transform="rotate(0,390,362)"/><circle cx="390" cy="390" r="7" transform="rotate(0,390,390)"/><rect x="383" y="411" width="14" height="14" transform="rotate(0,390,418)"/><rect x="383" y="425" width="14" height="14" transform="rotate(0,390,432)"/><path d="M 383 439v 14h 7a 7 7, 0, 0, 0, 0 -14" transform="rotate(90,390,446)"/><path d="M 397 131v 14h 7a 7 7, 0, 0, 0, 0 -14" transform="rotate(0,404,138)"/><path d="M 397 215v 14h 14v -7a 7 7, 0, 0, 0, -7 -7" transform="rotate(-90,404,222)"/><path d="M 397 229v 14h 14v -7a 7 7, 0, 0, 0, -7 -7" transform="rotate(90,404,236)"/><path d="M 397 257v 14h 14v -7a 7 7, 0, 0, 0, -7 -7" transform="rotate(-90,404,264)"/><path d="M 397 271v 14h 7a 7 7, 0, 0, 0, 0 -14" transform="rotate(90,404,278)"/><rect x="397" y="355" width="14" height="14" transform="rotate(0,404,362)"/><rect x="397" y="411" width="14" height="14" transform="rotate(0,404,418)"/><circle cx="418" cy="152" r="7" transform="rotate(0,418,152)"/><path d="M 411 187v 14h 14v -7a 7 7, 0, 0, 0, -7 -7" transform="rotate(-90,418,194)"/><rect x="411" y="201" width="14" height="14" transform="rotate(0,418,208)"/><rect x="411" y="215" width="14" height="14" transform="rotate(0,418,222)"/><path d="M 411 257v 14h 7a 7 7, 0, 0, 0, 0 -14" transform="rotate(0,418,264)"/><path d="M 411 285v 14h 7a 7 7, 0, 0, 0, 0 -14" transform="rotate(180,418,292)"/><circle cx="418" cy="334" r="7" transform="rotate(0,418,334)"/><rect x="411" y="355" width="14" height="14" transform="rotate(0,418,362)"/><rect x="411" y="369" width="14" height="14" transform="rotate(0,418,376)"/><rect x="411" y="383" width="14" height="14" transform="rotate(0,418,390)"/><rect x="411" y="397" width="14" height="14" transform="rotate(0,418,404)"/><rect x="411" y="411" width="14" height="14" transform="rotate(0,418,418)"/><path d="M 411 425v 14h 7a 7 7, 0, 0, 0, 0 -14" transform="rotate(90,418,432)"/><circle cx="432" cy="138" r="7" transform="rotate(0,432,138)"/><path d="M 425 159v 14h 14v -7a 7 7, 0, 0, 0, -7 -7" transform="rotate(-90,432,166)"/><rect x="425" y="173" width="14" height="14" transform="rotate(0,432,180)"/><path d="M 425 187v 14h 14v -7a 7 7, 0, 0, 0, -7 -7" transform="rotate(90,432,194)"/><path d="M 425 215v 14h 7a 7 7, 0, 0, 0, 0 -14" transform="rotate(0,432,222)"/><path d="M 425 243v 14h 7a 7 7, 0, 0, 0, 0 -14" transform="rotate(180,432,250)"/><path d="M 425 285v 14h 14v -7a 7 7, 0, 0, 0, -7 -7" transform="rotate(0,432,292)"/><rect x="425" y="299" width="14" height="14" transform="rotate(0,432,306)"/><path d="M 425 313v 14h 7a 7 7, 0, 0, 0, 0 -14" transform="rotate(90,432,320)"/><path d="M 425 341v 14h 14v -7a 7 7, 0, 0, 0, -7 -7" transform="rotate(-90,432,348)"/><rect x="425" y="355" width="14" height="14" transform="rotate(0,432,362)"/><path d="M 425 383v 14h 7a 7 7, 0, 0, 0, 0 -14" transform="rotate(0,432,390)"/><rect x="425" y="411" width="14" height="14" transform="rotate(0,432,418)"/><path d="M 425 439v 14h 14v -7a 7 7, 0, 0, 0, -7 -7" transform="rotate(-90,432,446)"/><path d="M 425 453v 14h 7a 7 7, 0, 0, 0, 0 -14" transform="rotate(90,432,460)"/><path d="M 439 145v 14h 14v -7a 7 7, 0, 0, 0, -7 -7" transform="rotate(-90,446,152)"/><rect x="439" y="159" width="14" height="14" transform="rotate(0,446,166)"/><rect x="439" y="243" width="14" height="14" transform="rotate(0,446,250)"/><path d="M 439 257v 14h 14v -7a 7 7, 0, 0, 0, -7 -7" transform="rotate(180,446,264)"/><path d="M 439 341v 14h 14v -7a 7 7, 0, 0, 0, -7 -7" transform="rotate(0,446,348)"/><rect x="439" y="355" width="14" height="14" transform="rotate(0,446,362)"/><path d="M 439 369v 14h 7a 7 7, 0, 0, 0, 0 -14" transform="rotate(90,446,376)"/><path d="M 439 411v 14h 7a 7 7, 0, 0, 0, 0 -14" transform="rotate(0,446,418)"/><path d="M 439 439v 14h 7a 7 7, 0, 0, 0, 0 -14" transform="rotate(0,446,446)"/><circle cx="446" cy="474" r="7" transform="rotate(0,446,474)"/><path d="M 453 131v 14h 7a 7 7, 0, 0, 0, 0 -14" transform="rotate(-90,460,138)"/><rect x="453" y="145" width="14" height="14" transform="rotate(0,460,152)"/><path d="M 453 159v 14h 14v -7a 7 7, 0, 0, 0, -7 -7" transform="rotate(90,460,166)"/><path d="M 453 187v 14h 7a 7 7, 0, 0, 0, 0 -14" transform="rotate(180,460,194)"/><circle cx="460" cy="222" r="7" transform="rotate(0,460,222)"/><path d="M 453 243v 14h 14v -7a 7 7, 0, 0, 0, -7 -7" transform="rotate(0,460,250)"/><rect x="453" y="257" width="14" height="14" transform="rotate(0,460,264)"/><path d="M 453 313v 14h 7a 7 7, 0, 0, 0, 0 -14" transform="rotate(180,460,320)"/><rect x="453" y="355" width="14" height="14" transform="rotate(0,460,362)"/><path d="M 467 145v 14h 7a 7 7, 0, 0, 0, 0 -14" transform="rotate(0,474,152)"/><path d="M 467 187v 14h 14v -7a 7 7, 0, 0, 0, -7 -7" transform="rotate(0,474,194)"/><path d="M 467 201v 14h 7a 7 7, 0, 0, 0, 0 -14" transform="rotate(90,474,208)"/><path d="M 467 257v 14h 7a 7 7, 0, 0, 0, 0 -14" transform="rotate(0,474,264)"/><path d="M 467 313v 14h 7a 7 7, 0, 0, 0, 0 -14" transform="rotate(0,474,320)"/><path d="M 467 355v 14h 14v -7a 7 7, 0, 0, 0, -7 -7" transform="rotate(0,474,362)"/><path d="M 467 369v 14h 7a 7 7, 0, 0, 0, 0 -14" transform="rotate(90,474,376)"/><path d="M 467 411v 14h 7a 7 7, 0, 0, 0, 0 -14" transform="rotate(-90,474,418)"/><path d="M 467 425v 14h 7a 7 7, 0, 0, 0, 0 -14" transform="rotate(90,474,432)"/><circle cx="474" cy="460" r="7" transform="rotate(0,474,460)"/></clipPath><clipPath id="clip-path-corners-square-color-0-0"><path clip-rule="evenodd" d="M 19 54v 28a 35 35, 0, 0, 0, 35 35h 28a 35 35, 0, 0, 0, 35 -35v -28a 35 35, 0, 0, 0, -35 -35h -28a 35 35, 0, 0, 0, -35 35M 54 33h 28a 21 21, 0, 0, 1, 21 21v 28a 21 21, 0, 0, 1, -21 21h -28a 21 21, 0, 0, 1, -21 -21v -28a 21 21, 0, 0, 1, 21 -21" transform="rotate(0,68,68)"/></clipPath><clipPath id="clip-path-corners-dot-color-0-0"><rect x="47" y="47" width="42" height="42" transform="rotate(0,68,68)"/></clipPath><clipPath id="clip-path-corners-square-color-1-0"><path clip-rule="evenodd" d="M 383 54v 28a 35 35, 0, 0, 0, 35 35h 28a 35 35, 0, 0, 0, 35 -35v -28a 35 35, 0, 0, 0, -35 -35h -28a 35 35, 0, 0, 0, -35 35M 418 33h 28a 21 21, 0, 0, 1, 21 21v 28a 21 21, 0, 0, 1, -21 21h -28a 21 21, 0, 0, 1, -21 -21v -28a 21 21, 0, 0, 1, 21 -21" transform="rotate(90,432,68)"/></clipPath><clipPath id="clip-path-corners-dot-color-1-0"><rect x="411" y="47" width="42" height="42" transform="rotate(90,432,68)"/></clipPath><clipPath id="clip-path-corners-square-color-0-1"><path clip-rule="evenodd" d="M 19 418v 28a 35 35, 0, 0, 0, 35 35h 28a 35 35, 0, 0, 0, 35 -35v -28a 35 35, 0, 0, 0, -35 -35h -28a 35 35, 0, 0, 0, -35 35M 54 397h 28a 21 21, 0, 0, 1, 21 21v 28a 21 21, 0, 0, 1, -21 21h -28a 21 21, 0, 0, 1, -21 -21v -28a 21 21, 0, 0, 1, 21 -21" transform="rotate(-90,68,432)"/></clipPath><clipPath id="clip-path-corners-dot-color-0-1"><rect x="47" y="411" width="42" height="42" transform="rotate(-90,68,432)"/></clipPath></defs><rect x="0" y="0" height="500" width="500" clip-path="url('#clip-path-background-color')" fill="#fff"/><rect x="0" y="0" height="500" width="500" clip-path="url('#clip-path-dot-color')" fill="#18417E"/><rect x="19" y="19" height="98" width="98" clip-path="url('#clip-path-corners-square-color-0-0')" fill="#18417E"/><rect x="47" y="47" height="42" width="42" clip-path="url('#clip-path-corners-dot-color-0-0')" fill="#18417E"/><rect x="383" y="19" height="98" width="98" clip-path="url('#clip-path-corners-square-color-1-0')" fill="#18417E"/><rect x="411" y="47" height="42" width="42" clip-path="url('#clip-path-corners-dot-color-1-0')" fill="#18417E"/><rect x="19" y="383" height="98" width="98" clip-path="url('#clip-path-corners-square-color-0-1')" fill="#18417E"/><rect x="47" y="411" height="42" width="42" clip-path="url('#clip-path-corners-dot-color-0-1')" fill="#18417E"/></svg>